:SAMPLES-PER-SECOND 30
:FULLY-SPECIFIED
:DEGREES
642
root  -57.6752 39.6508 -2.30843 -63.4313 -88.1492 63.7145
RightUpLeg  -18.0688 1.7992 -7.13445
RightLeg  8.24265 13.2223 -1.46187
RightFoot  2.67057 -1.17068 9.86648
RightToes  5.23868e-010 0 -3.6325e-017
Spine  23.774 -2.37203 5.79811
Spine1  8.75032 2.32838 -12.8614
HEad  -26.6958 -5.50274 2.11913
LeftShoulder1  1.78887 -9.82029 -5.6434
LeftArm  -38.7869 -73.3983 -13.2695
LeftForeArm  -20.6973 -10.9066 -2.33719
LeftHand  -0.207896 9.66863 -4.00977
RightShoulder  0.93108 4.92993 2.96369
RightArm  -38.043 69.0825 12.5967
RightForeArm  -40.3347 -4.81586 -1.00931
RightHand  0.118576 1.95942 1.70201
LeftUpLeg  -18.7045 3.93136 -2.78969
LeftLeg  12.9647 -6.76502 -2.74816
LeftFoot  6.17097 -1.16166 7.2943
LeftToes  -4.9204e-010 1.02043e-011 -1.81609e-011
643
root  -57.8241 39.8562 -2.41223 -38.3363 -87.2666 39.6582
RightUpLeg  -17.0963 -4.24991 -5.31248
RightLeg  4.44492 19.414 -2.76754
RightFoot  6.73846 -1.10069 7.11861
RightToes  5.23868e-010 0 -3.6325e-017
Spine  24.624 -2.41731 6.89
Spine1  8.3406 2.14182 -11.9829
HEad  -27.8163 -6.72294 1.53584
LeftShoulder1  1.72285 -10.6441 -4.22845
LeftArm  -42.4224 -74.6369 -11.0797
LeftForeArm  -19.8644 -9.17702 -1.14127
LeftHand  -0.210401 9.38934 -4.37255
RightShoulder  0.815544 4.69175 1.73506
RightArm  -43.4122 69.3965 6.93819
RightForeArm  -40.8885 -4.46989 -1.34405
RightHand  0.093305 1.4827 1.44513
LeftUpLeg  -18.131 2.79364 -2.88971
LeftLeg  9.89524 -7.17337 -2.30193
LeftFoot  7.6173 -1.17095 6.72435
LeftToes  -4.9204e-010 1.02043e-011 -1.81609e-011
644
root  -57.9649 39.9347 -2.54423 -29.1704 -86.8424 31.9961
RightUpLeg  -16.8833 -6.12971 -5.58115
RightLeg  1.27641 19.4532 -2.27201
RightFoot  7.66478 -1.45313 8.98548
RightToes  5.23868e-010 0 -3.6325e-017
Spine  25.1251 -3.02558 8.75214
Spine1  7.89883 2.45645 -14.0858
HEad  -29.7866 -7.42405 2.35796
LeftShoulder1  1.45623 -10.7547 -2.0154
LeftArm  -46.7746 -75.7606 -6.50414
LeftForeArm  -22.4344 -7.71588 -0.813778
LeftHand  -0.181635 9.34817 -3.63448
RightShoulder  0.787992 4.14651 2.12357
RightArm  -49.0071 69.6883 0.463195
RightForeArm  -41.4776 -4.40432 -1.58485
RightHand  0.112977 1.81909 1.66384
LeftUpLeg  -18.9797 1.82082 -2.75278
LeftLeg  8.65306 -7.06147 -1.76604
LeftFoot  8.22039 -1.13861 6.30608
LeftToes  -4.9204e-010 1.02043e-011 -1.81609e-011
645
root  -58.1425 39.9726 -2.71425 -35.5891 -87.2054 39.9123
RightUpLeg  -17.6677 -7.02244 -5.74255
RightLeg  -0.0626181 19.8848 -1.41817
RightFoot  8.02452 -1.63261 9.87061
RightToes  5.23868e-010 0 -3.6325e-017
Spine  26.5152 -2.92689 8.91009
Spine1  5.69667 2.63203 -14.5544
HEad  -30.349 -7.57123 2.62034
LeftShoulder1  1.3635 -11.0787 -1.02949
LeftArm  -50.1252 -75.3163 -3.13648
LeftForeArm  -23.8805 -7.07097 -0.193579
LeftHand  -0.20344 9.32387 -4.26875
RightShoulder  0.776251 4.54635 1.37444
RightArm  -52.0935 69.4723 -4.66955
RightForeArm  -41.937 -4.44521 -1.25093
RightHand  0.113296 1.9163 1.63348
LeftUpLeg  -19.9539 1.80294 -2.45497
LeftLeg  8.0031 -6.75049 -1.71105
LeftFoot  8.31555 -1.08943 5.98886
LeftToes  -4.9204e-010 1.02043e-011 -1.81609e-011
646
root  -58.311 40.0099 -2.89967 -39.3282 -87.0905 44.2305
RightUpLeg  -18.2046 -7.17542 -5.7003
RightLeg  0.145405 20.0498 -1.07621
RightFoot  8.55327 -1.57271 9.29834
RightToes  5.23868e-010 0 -3.6325e-017
Spine  27.5355 -2.99249 8.80698
Spine1  4.99138 2.54002 -14.518
HEad  -30.5054 -6.93588 2.36079
LeftShoulder1  1.31476 -10.945 -0.744923
LeftArm  -54.643 -74.9875 1.97
LeftForeArm  -25.8841 -7.51479 0.02682
LeftHand  -0.185569 9.4434 -3.65215
RightShoulder  0.702583 4.54306 0.324828
RightArm  -55.6279 69.3075 -7.23021
RightForeArm  -42.0761 -4.31657 -1.9473
RightHand  0.102828 1.17567 1.71233
LeftUpLeg  -20.0447 2.03272 -2.31614
LeftLeg  7.50097 -6.95976 -1.90296
LeftFoot  8.36629 -1.07283 5.87772
LeftToes  -4.9204e-010 1.02043e-011 -1.81609e-011
647
root  -58.4894 40.082 -3.08377 -33.3794 -86.143 39.1541
RightUpLeg  -18.992 -7.17508 -5.80349
RightLeg  0.675665 19.233 -1.08506
RightFoot  9.36207 -1.35401 7.74873
RightToes  5.23868e-010 0 -3.6325e-017
Spine  27.4981 -3.18131 8.45901
Spine1  5.01576 1.98876 -13.613
HEad  -30.5957 -6.99802 2.40832
LeftShoulder1  1.23274 -10.5799 -0.35461
LeftArm  -58.331 -74.5741 5.33404
LeftForeArm  -27.5274 -8.68184 0.52385
LeftHand  -0.185258 9.78075 -3.31295
RightShoulder  0.609045 4.22906 -0.641646
RightArm  -58.658 69.3172 -10.6549
RightForeArm  -43.7327 -4.23887 -2.01392
RightHand  0.123386 1.27056 2.03674
LeftUpLeg  -19.8929 1.38099 -2.64244
LeftLeg  5.72933 -7.31155 -1.48266
LeftFoot  9.14127 -1.05556 5.5294
LeftToes  -4.9204e-010 1.02043e-011 -1.81609e-011
648
root  -58.6997 40.1365 -3.25957 -31.5938 -85.3896 37.9428
RightUpLeg  -19.6192 -7.14497 -5.97527
RightLeg  1.62046 18.7447 -0.96342
RightFoot  9.10603 -1.25116 7.27632
RightToes  5.23868e-010 0 -3.6325e-017
Spine  27.9881 -3.38707 8.41005
Spine1  4.21504 1.66436 -13.4416
HEad  -29.7087 -7.31285 2.63794
LeftShoulder1  1.18192 -10.4781 -0.0105106
LeftArm  -60.5985 -74.1314 7.56536
LeftForeArm  -28.2096 -9.37337 0.81372
LeftHand  -0.192567 9.74101 -3.53901
RightShoulder  0.545382 4.12396 -1.47975
RightArm  -60.3382 68.7983 -12.3826
RightForeArm  -43.5973 -4.18633 -2.34089
RightHand  0.114067 1.25812 1.88412
LeftUpLeg  -19.5362 0.855523 -2.94746
LeftLeg  4.35026 -7.57579 -0.966385
LeftFoot  9.59174 -1.00887 5.13883
LeftToes  -4.9204e-010 1.02043e-011 -1.81609e-011
649
root  -58.9017 40.1774 -3.43275 -27.8611 -85.0913 34.7325
RightUpLeg  -20.0753 -7.3499 -5.85597
RightLeg  2.23841 18.5785 -0.364531
RightFoot  8.83771 -1.14814 6.78777
RightToes  5.23868e-010 0 -3.6325e-017
Spine  27.7059 -3.42345 8.85695
Spine1  4.49056 1.76155 -13.5564
HEad  -28.9879 -7.14057 1.95671
LeftShoulder1  1.03153 -10.3739 1.14907
LeftArm  -62.433 -73.6848 9.30835
LeftForeArm  -28.8904 -10.0151 1.07581
LeftHand  -0.188878 10.0537 -3.16113
RightShoulder  0.500353 3.59182 -1.59295
RightArm  -62.6428 68.6889 -15.5686
RightForeArm  -44.1305 -4.18775 -2.21162
RightHand  0.116108 0.719676 2.12339
LeftUpLeg  -19.7424 1.01799 -2.68531
LeftLeg  4.18674 -8.07273 -1.04678
LeftFoot  9.46007 -0.957564 4.89902
LeftToes  -4.9204e-010 1.02043e-011 -1.81609e-011
650
root  -59.1265 40.2364 -3.61888 -25.2385 -84.7161 32.0236
RightUpLeg  -19.5069 -7.16329 -5.66234
RightLeg  2.22799 17.8407 -0.486821
RightFoot  8.32517 -1.09879 6.66341
RightToes  5.23868e-010 0 -3.6325e-017
Spine  28.0424 -3.45605 9.22193
Spine1  4.07205 1.79311 -13.6495
HEad  -27.8236 -7.28713 2.1907
LeftShoulder1  0.970411 -10.4195 1.67866
LeftArm  -63.5564 -73.7495 10.6638
LeftForeArm  -28.5379 -9.89094 1.08223
LeftHand  -0.245103 10.7815 -3.83445
RightShoulder  0.476627 3.56445 -1.94567
RightArm  -62.6506 68.2068 -15.7311
RightForeArm  -44.3574 -4.16219 -2.304
RightHand  0.0822408 -0.0371554 1.81284
LeftUpLeg  -19.1006 0.943343 -2.55458
LeftLeg  3.73189 -8.42575 -0.714344
LeftFoot  9.43276 -0.888224 4.52838
LeftToes  -4.9204e-010 1.02043e-011 -1.81609e-011
651
root  -59.3437 40.2914 -3.78703 -22.4796 -84.5655 29.2513
RightUpLeg  -19.1064 -6.79946 -5.29299
RightLeg  2.2368 17.339 -0.654838
RightFoot  8.22601 -1.00388 6.1435
RightToes  5.23868e-010 0 -3.6325e-017
Spine  28.0339 -3.33785 9.38601
Spine1  4.03518 1.81956 -13.215
HEad  -27.2598 -7.15167 2.24563
LeftShoulder1  0.939808 -10.3513 1.89308
LeftArm  -64.7864 -74.0016 11.6791
LeftForeArm  -28.8087 -9.48768 1.28918
LeftHand  -0.253097 11.0502 -3.76967
RightShoulder  0.451586 3.58718 -2.37785
RightArm  -63.4435 68.122 -16.5468
RightForeArm  -44.0934 -4.15891 -2.38269
RightHand  0.11573 -0.388523 2.76067
LeftUpLeg  -18.7877 1.01701 -2.25324
LeftLeg  3.73627 -8.76037 -0.552642
LeftFoot  9.19731 -0.851002 4.38504
LeftToes  -4.9204e-010 1.02043e-011 -1.81609e-011
652
root  -59.5339 40.3306 -3.90795 -22.827 -84.5163 29.6656
RightUpLeg  -19.0443 -6.73677 -5.1579
RightLeg  2.59364 17.3122 -0.551428
RightFoot  8.0125 -0.877641 5.46669
RightToes  5.23868e-010 0 -3.6325e-017
Spine  27.9687 -3.29976 9.30539
Spine1  3.97644 1.76134 -13.0592
HEad  -27.022 -6.86168 2.60547
LeftShoulder1  0.913578 -10.0388 1.93383
LeftArm  -65.839 -74.1203 13.1731
LeftForeArm  -29.7075 -9.12034 1.16811
LeftHand  -0.200337 10.7414 -2.93662
RightShoulder  0.438729 3.48565 -2.47668
RightArm  -64.2448 68.4537 -17.1346
RightForeArm  -44.1341 -4.15637 -2.38757
RightHand  0.120761 -0.863474 3.24194
LeftUpLeg  -18.5505 0.840614 -2.20223
LeftLeg  3.6923 -8.61125 -0.279346
LeftFoot  9.03169 -0.834721 4.33611
LeftToes  -4.9204e-010 1.02043e-011 -1.81609e-011
653
root  -59.7248 40.377 -4.02559 -23.3508 -84.5818 30.2104
RightUpLeg  -18.8081 -6.69057 -4.98449
RightLeg  2.65798 17.3345 -0.471905
RightFoot  7.93814 -0.787614 4.95511
RightToes  5.23868e-010 0 -3.6325e-017
Spine  28.0615 -3.13591 9.24179
Spine1  3.48818 1.77085 -12.7043
HEad  -26.8602 -6.86536 2.36807
LeftShoulder1  0.986445 -10.0902 1.35112
LeftArm  -66.0928 -74.2264 14.6934
LeftForeArm  -30.2604 -8.28626 0.660893
LeftHand  -0.186701 10.781 -2.62838
RightShoulder  0.430538 3.82383 -2.94595
RightArm  -63.1759 68.5248 -16.9906
RightForeArm  -44.8387 -4.2164 -1.88765
RightHand  0.124827 -0.598635 3.12986
LeftUpLeg  -18.1323 0.973421 -2.0202
LeftLeg  3.44227 -8.56773 -0.211719
LeftFoot  8.87758 -0.762289 3.96995
LeftToes  -4.9204e-010 1.02043e-011 -1.81609e-011
654
root  -59.8917 40.4095 -4.1055 -24.2893 -84.7469 31.0863
RightUpLeg  -18.4883 -6.60561 -4.82417
RightLeg  2.62411 17.4774 -0.468424
RightFoot  7.74711 -0.73603 4.69166
RightToes  5.23868e-010 0 -3.6325e-017
Spine  28.027 -3.23897 9.54954
Spine1  3.39288 1.84046 -13.3027
HEad  -27.0259 -6.84042 2.59059
LeftShoulder1  0.922652 -10.0865 1.88417
LeftArm  -65.1448 -74.1401 12.737
LeftForeArm  -29.4286 -8.16375 1.14264
LeftHand  -0.225114 11.1989 -3.13285
RightShoulder  0.472371 3.81299 -2.27312
RightArm  -63.9643 68.9612 -18.1183
RightForeArm  -44.5288 -4.26314 -1.69465
RightHand  0.10321 -0.558495 2.5792
LeftUpLeg  -17.8364 1.15026 -1.85109
LeftLeg  3.58364 -8.5116 -0.244429
LeftFoot  8.5714 -0.743441 3.93561
LeftToes  -4.9204e-010 1.02043e-011 -1.81609e-011
655
root  -60.0318 40.4423 -4.1929 -23.8292 -84.7913 30.7561
RightUpLeg  -18.3977 -6.39605 -4.61618
RightLeg  2.60187 17.213 -0.532982
RightFoot  7.64631 -0.696081 4.47426
RightToes  5.23868e-010 0 -3.6325e-017
Spine  27.9595 -3.3056 9.76194
Spine1  3.0707 1.86553 -13.6717
HEad  -26.8026 -6.61719 2.35264
LeftShoulder1  0.879852 -10.2136 2.3171
LeftArm  -63.5936 -73.8804 10.7499
LeftForeArm  -28.6166 -8.0399 1.34348
LeftHand  -0.252898 11.0201 -3.78812
RightShoulder  0.503963 3.78562 -1.74429
RightArm  -63.8921 69.2414 -17.8576
RightForeArm  -44.3313 -4.27605 -1.66675
RightHand  0.0782795 -0.4904 1.93108
LeftUpLeg  -17.6109 1.23163 -1.68756
LeftLeg  3.28624 -8.72619 -0.109364
LeftFoot  8.57027 -0.718755 3.79536
LeftToes  -4.9204e-010 1.02043e-011 -1.81609e-011
656
root  -60.1485 40.4686 -4.2814 -24.3546 -84.7486 31.201
RightUpLeg  -18.1041 -6.20734 -4.50768
RightLeg  2.57486 17.0173 -0.711959
RightFoot  7.43867 -0.688582 4.4705
RightToes  5.23868e-010 0 -3.6325e-017
Spine  28.3071 -3.098 9.76984
Spine1  2.38741 1.93104 -13.2389
HEad  -26.3072 -6.92067 2.11798
LeftShoulder1  0.999481 -10.5561 1.5183
LeftArm  -62.4705 -74.1057 10.3225
LeftForeArm  -29.0245 -7.42697 0.893839
LeftHand  -0.211968 11.0153 -2.98922
RightShoulder  0.496078 4.18617 -2.28375
RightArm  -61.7051 68.7079 -15.6632
RightForeArm  -43.7219 -4.29209 -1.71534
RightHand  0.0982716 -0.312731 2.30199
LeftUpLeg  -17.3165 1.37937 -1.6014
LeftLeg  3.23902 -8.79535 -0.176134
LeftFoot  8.49848 -0.71252 3.77633
LeftToes  -4.9204e-010 1.02043e-011 -1.81609e-011
